<svg xmlns="http://www.w3.org/2000/svg" viewBox="0 0 512 512"><g id="Слой_2" data-name="Слой 2"><g id="Слой_1-2" data-name="Слой 1"><path d="M223.75,130.75,154.62,15.54A32,32,0,0,0,127.18,0H16A16,16,0,0,0,2.92,25.18l111.27,159a207,207,0,0,1,109.56-53.39ZM496,0H384.82a32,32,0,0,0-27.44,15.54L288.25,130.75a207,207,0,0,1,109.56,53.38L509.08,25.18A16,16,0,0,0,496,0ZM256,160A176,176,0,1,0,432,336,176,176,0,0,0,256,160Zm92.52,157.26-37.93,37,9,52.22a11.48,11.48,0,0,1-16.65,12.09L256,393.88l-46.9,24.65a11.48,11.48,0,0,1-16.65-12.09l9-52.22-37.93-37a11.49,11.49,0,0,1,6.35-19.59L222.27,290l23.43-47.52a11.5,11.5,0,0,1,20.61,0L289.74,290l52.43,7.64A11.49,11.49,0,0,1,348.52,317.26Z"/></g></g></svg>