<svg xmlns="http://www.w3.org/2000/svg" viewBox="0 0 18 10.89"><defs><style>.cls-1{fill:#fff;}</style></defs><g id="Слой_2" data-name="Слой 2"><g id="Слой_1-2" data-name="Слой 1"><g id="Слой_2-2" data-name="Слой 2"><g id="Слой_1-2-2" data-name="Слой 1-2"><path class="cls-1" d="M.57,1.29l7.5,4a1.89,1.89,0,0,0,.91.2,1.89,1.89,0,0,0,.91-.2l7.5-4C17.88,1,18.34,0,17.44,0H.52C-.38,0,.09,1,.57,1.29Zm17,1.09-7.72,4A1.68,1.68,0,0,1,9,6.6a1.69,1.69,0,0,1-.91-.2L.41,2.4C0,2.17,0,2.41,0,2.6V9.89a1.23,1.23,0,0,0,1,1H17a1.23,1.23,0,0,0,1-1V2.6c0-.19,0-.43-.39-.22Z"/></g></g></g></g></svg>