<svg xmlns="http://www.w3.org/2000/svg" viewBox="0 0 269.9 369.17"><defs><style>.cls-1{fill:#fff;}</style></defs><g id="Слой_2" data-name="Слой 2"><g id="Слой_1-2" data-name="Слой 1"><g id="Слой_2-2" data-name="Слой 2"><g id="Слой_2-2-2" data-name="Слой 2-2"><path class="cls-1" d="M247.37,101.63v104.9l-8.32-.56-78.61-5.33L135,198.91l-25.49,1.73L30.85,206l-8.32.56V101.63H59.81c-.11,1.5-.17,3-.17,4.54v59.41c10-1.38,21-2.49,32.69-3.28,13.4-.92,27.73-1.41,42.62-1.41s29.22.49,42.62,1.41c11.69.79,22.67,1.9,32.69,3.28V106.17c0-1.53-.06-3-.17-4.54Z"/><path class="cls-1" d="M135,0C72.86,0,22.53,45.5,22.53,101.63c0,25,10,47.87,26.53,65.56a110,110,0,0,0,27.42,21.25,118.25,118.25,0,0,0,33,12.2,125.17,125.17,0,0,0,51,0,118.25,118.25,0,0,0,33-12.2,110,110,0,0,0,27.42-21.25c16.56-17.69,26.53-40.57,26.53-65.56C247.37,45.5,197,0,135,0Zm42.62,162.3c-13.4-.92-27.73-1.41-42.62-1.41s-29.22.49-42.62,1.41c-11.69.79-22.67,1.9-32.69,3.28V106.17c0-1.53.06-3,.17-4.54C62.39,66.15,95.05,38.09,135,38.09s72.56,28.06,75.14,63.54c.11,1.5.17,3,.17,4.54v59.41c-10.07-1.38-21.05-2.49-32.74-3.28Z"/><path class="cls-1" d="M210.26,165.58v10.86L152,172.5l-17-1.16-17.07,1.16-58.24,3.94V165.58c10-1.38,21-2.49,32.69-3.28,13.4-.92,27.73-1.41,42.62-1.41s29.22.49,42.62,1.41C189.26,163.09,200.24,164.2,210.26,165.58Z"/><path class="cls-1" d="M177.57,162.3A79.33,79.33,0,0,1,152,172.5a84.25,84.25,0,0,1-34.14,0,79.45,79.45,0,0,1-25.55-10.2c13.4-.92,27.73-1.41,42.62-1.41S164.17,161.38,177.57,162.3Z"/><path class="cls-1" d="M269.9,188.44c0,5.63-8.29,10.87-22.53,15.24-2.58.79-5.36,1.56-8.32,2.29-21.72,5.37-53.21,9-88.92,9.85a27.55,27.55,0,0,0-30.36,0c-35.71-.82-67.2-4.48-88.92-9.85-3-.73-5.74-1.5-8.32-2.29C8.29,199.31,0,194.07,0,188.44s8.29-10.87,22.53-15.24a211.53,211.53,0,0,1,26.53-6q5.09-.85,10.58-1.61c10-1.38,21-2.49,32.69-3.28,13.4-.92,27.73-1.41,42.62-1.41s29.22.49,42.62,1.41c11.69.79,22.67,1.9,32.69,3.28q5.49.75,10.58,1.61a211.53,211.53,0,0,1,26.53,6C261.61,177.57,269.9,182.81,269.9,188.44Z"/><path class="cls-1" d="M269.9,341.63c0,15.21-60.42,27.54-134.95,27.54S0,356.84,0,341.63c0-14.34,53.66-26.12,122.23-27.43a13.46,13.46,0,0,0,25.44,0C216.24,315.51,269.9,327.29,269.9,341.63Z"/><path class="cls-1" d="M0,188.44V341.63H269.9V188.44ZM135,323.25a13.48,13.48,0,0,1-13.47-13.48V262.84a27.54,27.54,0,1,1,26.94,0v46.93A13.48,13.48,0,0,1,135,323.25Z"/></g></g></g></g></svg>