<svg xmlns="http://www.w3.org/2000/svg" viewBox="0 0 53.89 34.15"><defs><style>.cls-1{fill:#fff;fill-rule:evenodd;}</style></defs><g id="Слой_2" data-name="Слой 2"><g id="Слой_1-2" data-name="Слой 1"><path class="cls-1" d="M0,15.56c.1-.16.2-.32.29-.48L8.24.87C8.37.63,8.55.4,8.7.16S9,0,9.13.07l2.94,1.78c.27.17.52.37.8.53a.33.33,0,0,1,.19.43.27.27,0,0,1-.06.1c-1,1.77-1.93,3.55-2.92,5.31q-2.55,4.5-5.12,9c-.16.28-.36.55-.52.84s-.3.25-.52.12c-.68-.39-1.37-.76-2-1.16S1,16.42.51,16.11A3.07,3.07,0,0,1,0,15.73Z"/><path class="cls-1" d="M32.78,31.82a3.73,3.73,0,0,1-.94,1,2.64,2.64,0,0,1-1.69.65,13.18,13.18,0,0,1-5.11-1l-.12-.08a3.4,3.4,0,0,1,.26-.5,3.14,3.14,0,0,0-1-4.33,3.27,3.27,0,0,0-1.32-.47L22.4,27a3.05,3.05,0,0,0-.76-2.55,3,3,0,0,0-2.43-1.13v-.76a3.07,3.07,0,0,0-2-2.84,2.59,2.59,0,0,0-3.12.85c-.18.25-.37.48-.58.76l-.24-.48a3.15,3.15,0,0,0-2.51-1.78,2.59,2.59,0,0,0-1.86.52c-.51.38-.51.38-.92-.13L6.22,17.37c2.3-4.06,4.59-8.14,6.93-12.28,1.61,1.31,3.56,1.47,5.51,1.81-.09.16-.15.27-.22.37-.72,1.08-1.44,2.14-2.15,3.22a4.46,4.46,0,0,0-.78,1.8,5.57,5.57,0,0,0,0,1.29,1.58,1.58,0,0,0,1.36,1.1,6.55,6.55,0,0,0,4.52-1.3A11.19,11.19,0,0,0,24,10.76a1,1,0,0,1,.63-.43c.45-.12.9-.25,1.34-.4a.6.6,0,0,1,.49,0,82,82,0,0,1,13.47,8.52c1,.77,2,1.56,3,2.36a7.31,7.31,0,0,1,.64.6A1.86,1.86,0,0,1,43.49,24l-.16.13a2.1,2.1,0,0,1-.81.27,2.59,2.59,0,0,1-2-.46c-2.26-1.39-4.55-2.73-6.84-4.08a9.18,9.18,0,0,0-1-.48c-.34-.13-.5-.08-.61.15a.44.44,0,0,0,.2.64q2.43,1.53,4.88,3c1,.59,1.92,1.17,2.89,1.75a.38.38,0,0,1,.23.39,4,4,0,0,0,0,.49,1.86,1.86,0,0,1-1.78,1.88,2.73,2.73,0,0,1-1.65-.36L30.9,24.07l-.42-.22a.52.52,0,0,0-.74.14.41.41,0,0,0,0,.09c-.14.23-.07.44.27.64,1,.59,1.93,1.17,2.9,1.74s2.06,1.19,3.07,1.82.86.71.49,1.64a1.68,1.68,0,0,1-1.65,1,3.28,3.28,0,0,1-1.68-.37c-1.48-.68-3-1.39-4.44-2.08a5.24,5.24,0,0,0-.69-.28.49.49,0,0,0-.62.29h0a.42.42,0,0,0,.15.58l.08,0c1.38.71,2.78,1.4,4.16,2.11C32.08,31.43,32.42,31.62,32.78,31.82Z"/><path class="cls-1" d="M47.57,17.07a15.25,15.25,0,0,1-3.46,3,.32.32,0,0,1-.43,0,100.2,100.2,0,0,0-10-7.25A68,68,0,0,0,26.85,9a1.33,1.33,0,0,0-1.1-.09c-.71.24-1.43.44-2.14.68a.59.59,0,0,0-.3.26,9.57,9.57,0,0,1-3.15,3.05,5.82,5.82,0,0,1-2.57.8H17.3c-.54,0-.67-.18-.69-.72a2.21,2.21,0,0,1,.4-1.45l4-5.73A2.26,2.26,0,0,1,22.42,5a18.71,18.71,0,0,1,3.79-.6c1.46-.08,2.93-.11,4.4-.11a20,20,0,0,1,4.07.57c1,.22,2.1.41,3.15.59a5.65,5.65,0,0,0,2.31-.19c.65-.16.66-.15,1,.41L47.51,17Z"/><path class="cls-1" d="M45,0c.06.08.14.15.19.23.5.82,1,1.62,1.48,2.46q3.42,6.08,6.82,12.19c.12.21.21.45.34.66a.24.24,0,0,1,0,.35s0,0-.06,0c-.29.19-.56.41-.86.59-1,.56-1.93,1.11-2.89,1.68-.25.14-.39.11-.54-.16L43,6.6c-.69-1.18-1.32-2.38-2-3.6-.22-.42-.22-.47.2-.75q1.27-.83,2.58-1.62c.32-.2.65-.37,1-.55Z"/><path class="cls-1" d="M13.18,29a2.06,2.06,0,0,1-2-2.05,1.49,1.49,0,0,1,.2-.67c1.22-1.67,2.44-3.35,3.69-5a1.44,1.44,0,0,1,2-.3.9.9,0,0,1,.18.15A2,2,0,0,1,18.1,23a1.74,1.74,0,0,1-.32.72c-.75,1.07-1.52,2.13-2.3,3.18-.41.55-.84,1.09-1.27,1.62A1.1,1.1,0,0,1,13.18,29Z"/><path class="cls-1" d="M17.21,31.69a1.9,1.9,0,0,1-1.66-3l2.91-3.82a1.12,1.12,0,0,1,1.3-.29,2,2,0,0,1,1.52,2.12,1.43,1.43,0,0,1-.24.69c-.89,1.25-1.79,2.5-2.71,3.73A1.18,1.18,0,0,1,17.21,31.69Z"/><path class="cls-1" d="M24.66,30.29a2.41,2.41,0,0,1-.24.65c-.68.94-1.35,1.87-2.07,2.77a1.19,1.19,0,0,1-1.48.3,2.18,2.18,0,0,1-1.4-1.6,1.13,1.13,0,0,1,.13-.93c.69-1,1.38-1.93,2.11-2.87a1.13,1.13,0,0,1,1.22-.34A2.38,2.38,0,0,1,24.66,30.29Z"/><path class="cls-1" d="M12.48,22.31a2.5,2.5,0,0,1-.25.71q-.66.93-1.38,1.8a1.13,1.13,0,0,1-1.32.35A2.19,2.19,0,0,1,8,23.35a1.21,1.21,0,0,1,.17-.81c.41-.64.87-1.24,1.32-1.85a1.25,1.25,0,0,1,1.41-.42A2.17,2.17,0,0,1,12.48,22.31Z"/></g></g></svg>