<?xml version="1.0" encoding="utf-8"?>
<!-- Generator: Adobe Illustrator 26.2.1, SVG Export Plug-In . SVG Version: 6.00 Build 0)  -->
<svg version="1.1" id="Слой_1" xmlns="http://www.w3.org/2000/svg" xmlns:xlink="http://www.w3.org/1999/xlink" x="0px" y="0px"
	 viewBox="0 0 12 12" style="enable-background:new 0 0 12 12;" xml:space="preserve">
<style type="text/css">
	.st0{fill-rule:evenodd;clip-rule:evenodd;fill:#FFFFFF;}
	.st1{fill:#FFFFFF;}
</style>
<path class="st0" d="M2.2,1.5c0-0.4,0.3-0.8,0.8-0.8h6c0.4,0,0.8,0.3,0.8,0.8v9.8h1.1c0.2,0,0.4,0.2,0.4,0.4S11.1,12,10.9,12H1.1
	c-0.2,0-0.4-0.2-0.4-0.4s0.2-0.4,0.4-0.4h1.1V1.5z M3,11.2h6V1.5H3V11.2z"/>
<path class="st1" d="M6.8,6.8c0,0.4,0.3,0.8,0.8,0.8s0.8-0.3,0.8-0.8S7.9,6,7.5,6S6.8,6.3,6.8,6.8z"/>
</svg>
