<?xml version="1.0" encoding="utf-8"?>
<!-- Generator: Adobe Illustrator 26.2.1, SVG Export Plug-In . SVG Version: 6.00 Build 0)  -->
<svg version="1.1" id="Слой_1" xmlns="http://www.w3.org/2000/svg" xmlns:xlink="http://www.w3.org/1999/xlink" x="0px" y="0px"
	 viewBox="0 0 24 24" style="enable-background:new 0 0 24 24;" xml:space="preserve">
<style type="text/css">
	.st0{fill:none;stroke:#FFFFFF;stroke-width:2;}
</style>
<path class="st0" d="M12,15c1.7,0,3-1.3,3-3s-1.3-3-3-3s-3,1.3-3,3S10.3,15,12,15z M15,12c4,3,5,7,5,7 M12,23c6.1,0,11-4.9,11-11
	S18.1,1,12,1S1,5.9,1,12S5.9,23,12,23z M12,9c3-5,7-6,7-6 M12,15c-3,4-7,5-7,5 M9,12C5,9,4,5,4,5"/>
</svg>
