<?xml version="1.0" encoding="utf-8"?>
<!-- Generator: Adobe Illustrator 26.2.1, SVG Export Plug-In . SVG Version: 6.00 Build 0)  -->
<svg version="1.1" id="Слой_1" xmlns="http://www.w3.org/2000/svg" xmlns:xlink="http://www.w3.org/1999/xlink" x="0px" y="0px"
	 viewBox="0 0 32 32" style="enable-background:new 0 0 32 32;" xml:space="preserve">
<style type="text/css">
	.st0{fill:#FFFFFF;}
	.st1{fill:none;}
</style>
<path class="st0" d="M15,2h2v5h-2V2z"/>
<path class="st0" d="M21.7,8.9l3.5-3.5l1.4,1.4l-3.5,3.5L21.7,8.9z"/>
<path class="st0" d="M25,15h5v2h-5V15z"/>
<path class="st0" d="M21.7,23.1l1.4-1.4l3.5,3.5l-1.4,1.4L21.7,23.1z"/>
<path class="st0" d="M15,25h2v5h-2V25z"/>
<path class="st0" d="M5.4,25.2l3.5-3.5l1.4,1.4l-3.5,3.5L5.4,25.2z"/>
<path class="st0" d="M2,15h5v2H2V15z"/>
<path class="st0" d="M5.4,6.8l1.4-1.4l3.5,3.5l-1.4,1.4L5.4,6.8z"/>
<path class="st0" d="M16,12c2.2,0,4,1.8,4,4s-1.8,4-4,4s-4-1.8-4-4C12,13.8,13.8,12,16,12 M16,10c-3.3,0-6,2.7-6,6s2.7,6,6,6
	s6-2.7,6-6S19.3,10,16,10z"/>
<path class="st1" d="M0,0h32v32H0V0z"/>
</svg>
