<svg height="24" viewBox="0 0 24 24" width="24" xmlns="http://www.w3.org/2000/svg"><path d="m4.70710678 12 3.14644661 3.1464466c.19526215.1952622.19526215.5118446 0 .7071068-.19526215.1952621-.51184463.1952621-.70710678 0l-4-4c-.19526215-.1952622-.19526215-.5118446 0-.7071068l4-3.99999999c.19526215-.19526215.51184463-.19526215.70710678 0s.19526215.51184463 0 .70710678l-3.14644661 3.14644661h10.79289322c.2761424 0 .5.2238576.5.5s-.2238576.5-.5.5zm5.79289322-8c-.2761424 0-.5-.22385763-.5-.5s.2238576-.5.5-.5h8c1.3807119 0 2.5 1.11928813 2.5 2.5v13c0 1.3807119-1.1192881 2.5-2.5 2.5h-8c-.2761424 0-.5-.2238576-.5-.5s.2238576-.5.5-.5h8c.8284271 0 1.5-.6715729 1.5-1.5v-13c0-.82842712-.6715729-1.5-1.5-1.5z"/></svg>