<?xml version="1.0" encoding="utf-8"?>
<!-- Generator: Adobe Illustrator 26.2.1, SVG Export Plug-In . SVG Version: 6.00 Build 0)  -->
<svg version="1.1" id="Слой_1" xmlns="http://www.w3.org/2000/svg" xmlns:xlink="http://www.w3.org/1999/xlink" x="0px" y="0px"
	 viewBox="0 0 21.8 21.7" style="enable-background:new 0 0 21.8 21.7;" xml:space="preserve">
<style type="text/css">
	.st0{clip-path:url(#SVGID_00000011027516488078663840000000904534292902704063_);}
	.st1{fill:none;stroke:#FFFFFF;stroke-miterlimit:10;}
</style>
<g id="Сгруппировать_29" transform="translate(0 0)">
	<g>
		<defs>
			<rect id="SVGID_1_" width="21.8" height="21.7"/>
		</defs>
		<clipPath id="SVGID_00000079453215614064376450000003635375297394309537_">
			<use xlink:href="#SVGID_1_"  style="overflow:visible;"/>
		</clipPath>
		
			<g id="Сгруппировать_28" transform="translate(0 0)" style="clip-path:url(#SVGID_00000079453215614064376450000003635375297394309537_);">
			<path id="Контур_1" class="st1" d="M5.2,0.7l3.4,3.4C9,4.5,9,5.2,8.6,5.6L6.9,7.3C6.8,7.4,6.8,7.9,7.1,8.6
				c1,2.9,3.4,5.1,6.3,5.9c0.4,0.1,0.8,0.2,0.9,0.1L16,13c0.4-0.4,1.1-0.4,1.5,0l3.7,3.7c0.4,0.4,0.4,1.1,0,1.5L18,21.2
				c-0.4,0.4-7-1.7-11.4-6S0.1,4.3,0.4,4l3.3-3.3C4.1,0.3,4.8,0.3,5.2,0.7z"/>
		</g>
	</g>
</g>
</svg>
