<svg xmlns="http://www.w3.org/2000/svg" viewBox="0 0 16.25 16"><defs><style>.cls-1{fill:#fff;}</style></defs><g id="Слой_2" data-name="Слой 2"><g id="Слой_1-2" data-name="Слой 1"><path class="cls-1" d="M7.5,0a5.5,5.5,0,0,1,4.38,8.82L16,13a.75.75,0,0,1-1,1.13L15,14,10.82,9.88A5.46,5.46,0,0,1,9,10.79V9.21A4,4,0,1,0,3.52,5.09,1.34,1.34,0,0,0,3,5.43a4.77,4.77,0,0,1-1,.78C2,6,2,5.74,2,5.5A5.5,5.5,0,0,1,7.5,0Z"/><path class="cls-1" d="M6,7.35a4.68,4.68,0,0,1-1-.59,5.91,5.91,0,0,1-.72-.64.39.39,0,0,0-.56,0A4.51,4.51,0,0,1,.4,7.67a.4.4,0,0,0-.4.41v2.77A6.28,6.28,0,0,0,.44,13,5.18,5.18,0,0,0,1,14a4.69,4.69,0,0,0,1,1,6.62,6.62,0,0,0,1.87,1,.39.39,0,0,0,.26,0A5.29,5.29,0,0,0,8,10.58V8a.4.4,0,0,0-.39-.33,4,4,0,0,1-.6,0A3.9,3.9,0,0,1,6,7.35Z"/></g></g></svg>