<svg xmlns="http://www.w3.org/2000/svg" width="32.798" height="27.098" viewBox="0 0 32.798 27.098">
  <path id="server" d="M30.748,39.742H2.05A2,2,0,0,1,0,37.807V33.936A2,2,0,0,1,2.05,32h28.7a2,2,0,0,1,2.05,1.936v3.871A2,2,0,0,1,30.748,39.742Zm-3.075-5.323a1.454,1.454,0,1,0,1.537,1.452A1.5,1.5,0,0,0,27.674,34.419Zm-4.1,0a1.454,1.454,0,1,0,1.537,1.452A1.5,1.5,0,0,0,23.574,34.419Zm7.175,15H2.05A2,2,0,0,1,0,47.485V43.614a2,2,0,0,1,2.05-1.936h28.7a2,2,0,0,1,2.05,1.936v3.871A2,2,0,0,1,30.748,49.42ZM27.674,44.1a1.454,1.454,0,1,0,1.537,1.452A1.5,1.5,0,0,0,27.674,44.1Zm-4.1,0a1.454,1.454,0,1,0,1.537,1.452A1.5,1.5,0,0,0,23.574,44.1Zm7.175,15H2.05A2,2,0,0,1,0,57.163V53.292a2,2,0,0,1,2.05-1.936h28.7a2,2,0,0,1,2.05,1.936v3.871A2,2,0,0,1,30.748,59.1Zm-3.075-5.323a1.454,1.454,0,1,0,1.537,1.452A1.5,1.5,0,0,0,27.674,53.775Zm-4.1,0a1.454,1.454,0,1,0,1.537,1.452A1.5,1.5,0,0,0,23.574,53.775Z" transform="translate(0 -32)" fill="#fff"/>
</svg>
