<svg xmlns="http://www.w3.org/2000/svg" viewBox="0 0 119.05 89.87"><defs><style>.cls-1{fill:#fff;}</style></defs><g id="Слой_2" data-name="Слой 2"><g id="Слой_1-2" data-name="Слой 1"><g id="Слой_2-2" data-name="Слой 2"><g id="Слой_1-2-2" data-name="Слой 1-2"><path class="cls-1" d="M118.46,21.31l-4.87-4.93a2.08,2.08,0,0,0-2.94,0L92.28,34.59l-8-8a2.09,2.09,0,0,0-3,0l0,0-4.92,4.89a2.06,2.06,0,0,0,0,2.91l0,0L90.74,48.8a2.06,2.06,0,0,0,2.91,0l0,0,24.77-24.57A2.09,2.09,0,0,0,118.46,21.31Z"/><path class="cls-1" d="M47.16,40.42A20.21,20.21,0,1,0,27,20.16v.05a20.13,20.13,0,0,0,20,20.21Zm0,9C31.46,49.45,0,57.33,0,73V89.87H94.32V73c0-15.67-31.46-23.55-47.16-23.55Z"/></g></g></g></g></svg>