<svg xmlns="http://www.w3.org/2000/svg" viewBox="0 0 46.48 46.48"><defs><style>.cls-1{fill:none;stroke:#000;stroke-miterlimit:10;stroke-width:3px;}</style></defs><g id="Слой_2" data-name="Слой 2"><g id="Слой_1-2" data-name="Слой 1"><path class="cls-1" d="M36.85,30.93A15.5,15.5,0,0,1,31,36.83L33.55,43,30,44.51l-2.58-6.2a15.63,15.63,0,0,1-8.34,0l-2.56,6.2L13,43.06l2.56-6.21A15.5,15.5,0,0,1,9.65,31l-6.2,2.58L2,30l6.2-2.58a15.5,15.5,0,0,1,0-8.33L2,16.54,3.42,13l6.21,2.56a15.45,15.45,0,0,1,5.89-5.9l-2.58-6.2L16.48,2l2.57,6.2a15.63,15.63,0,0,1,8.34,0L30,2l3.54,1.46L30.93,9.63a15.52,15.52,0,0,1,5.9,5.89L43,12.94l1.48,3.54L38.3,19.06a15.4,15.4,0,0,1,0,8.33L44.52,30,43.06,33.5Z"/><circle class="cls-1" cx="23.34" cy="23.22" r="8.55"/></g></g></svg>