<svg xmlns="http://www.w3.org/2000/svg" viewBox="0 0 176.97 200"><g id="Слой_2" data-name="Слой 2"><g id="Layer_1" data-name="Layer 1"><path d="M163.66,40.65H136.32V13.31A13.33,13.33,0,0,0,123,0H57.88a13.2,13.2,0,0,0-9.41,3.9L3.9,48.47A13.18,13.18,0,0,0,0,57.88V146a13.32,13.32,0,0,0,13.31,13.31H40.65v27.34A13.32,13.32,0,0,0,54,200h109.7A13.32,13.32,0,0,0,177,186.69V54A13.32,13.32,0,0,0,163.66,40.65ZM13.31,147.47A1.44,1.44,0,0,1,11.88,146V60.43a3,3,0,0,1,3-3H47.49A10.27,10.27,0,0,0,57.77,47.18V14.86a3,3,0,0,1,3-3H123a1.44,1.44,0,0,1,1.43,1.43V40.66H98.54a13.21,13.21,0,0,0-9.41,3.89L44.55,89.13a13.23,13.23,0,0,0-3.89,9.41v48.93Zm151.78,39.22a1.43,1.43,0,0,1-1.43,1.43H54a1.44,1.44,0,0,1-1.43-1.43V101.08a3,3,0,0,1,3-3H88.15A10.27,10.27,0,0,0,98.42,87.83V55.51a3,3,0,0,1,3-3h62.26A1.44,1.44,0,0,1,165.09,54V186.69Z"/></g></g></svg>